<?xml version="1.0" encoding="UTF-8"?>
<svg width="800px" height="600px" viewBox="0 0 800 600" version="1.1" xmlns="http://www.w3.org/2000/svg">
    <g id="internet-marketing" stroke="none" stroke-width="1" fill="none" fill-rule="evenodd">
        <!-- Laptop -->
        <rect x="250" y="250" width="300" height="200" rx="10" fill="#2D3748"/>
        <rect x="270" y="270" width="260" height="160" rx="5" fill="#4A5568"/>
        <!-- Graph on screen -->
        <path d="M290,380 L310,350 L330,370 L350,320 L370,340 L390,300 L410,330 L430,310 L450,340 L470,320" 
              stroke="#4299E1" stroke-width="4" stroke-linecap="round"/>
        <!-- Marketing symbols -->
        <circle cx="500" cy="200" r="40" fill="#48BB78" opacity="0.2"/>
        <path d="M480,200 L520,200 M500,180 L500,220" stroke="#48BB78" stroke-width="4" stroke-linecap="round"/>
        <!-- Connected devices -->
        <rect x="150" y="300" width="60" height="100" rx="5" fill="#2B6CB0"/>
        <rect x="590" y="320" width="80" height="60" rx="5" fill="#2B6CB0"/>
        <!-- Connection lines -->
        <path d="M210,350 L250,350" stroke="#A0AEC0" stroke-width="2" stroke-dasharray="5,5"/>
        <path d="M550,350 L590,350" stroke="#A0AEC0" stroke-width="2" stroke-dasharray="5,5"/>
    </g>
</svg> 