<?xml version="1.0" encoding="UTF-8"?>
<svg width="400" height="300" viewBox="0 0 400 300" fill="none" xmlns="http://www.w3.org/2000/svg">
  <!-- Background -->
  <rect width="400" height="300" fill="#F8FAFC" rx="20"/>
  
  <!-- Design Grid -->
  <path d="M100 50L300 50" stroke="#E2E8F0" stroke-width="1" stroke-dasharray="4 4"/>
  <path d="M100 250L300 250" stroke="#E2E8F0" stroke-width="1" stroke-dasharray="4 4"/>
  <path d="M100 50L100 250" stroke="#E2E8F0" stroke-width="1" stroke-dasharray="4 4"/>
  <path d="M300 50L300 250" stroke="#E2E8F0" stroke-width="1" stroke-dasharray="4 4"/>
  
  <!-- Logo Elements -->
  <circle cx="200" cy="150" r="60" fill="#3B82F6" opacity="0.1"/>
  <path d="M160 150L240 150" stroke="#3B82F6" stroke-width="4" stroke-linecap="round"/>
  <path d="M200 110L200 190" stroke="#3B82F6" stroke-width="4" stroke-linecap="round"/>
  
  <!-- Design Tools -->
  <circle cx="120" cy="80" r="15" fill="#F59E0B" opacity="0.2"/>
  <path d="M115 80L125 80M120 75L120 85" stroke="#F59E0B" stroke-width="2"/>
  
  <circle cx="280" cy="80" r="15" fill="#EF4444" opacity="0.2"/>
  <path d="M275 80L285 80" stroke="#EF4444" stroke-width="2"/>
  
  <circle cx="120" cy="220" r="15" fill="#10B981" opacity="0.2"/>
  <path d="M115 220H125M120 215V225" stroke="#10B981" stroke-width="2"/>
  
  <circle cx="280" cy="220" r="15" fill="#8B5CF6" opacity="0.2"/>
  <path d="M275 220L285 220M280 215V225" stroke="#8B5CF6" stroke-width="2"/>
  
  <!-- Color Palette -->
  <circle cx="340" cy="100" r="10" fill="#3B82F6"/>
  <circle cx="340" cy="130" r="10" fill="#F59E0B"/>
  <circle cx="340" cy="160" r="10" fill="#EF4444"/>
  <circle cx="340" cy="190" r="10" fill="#10B981"/>
  
  <!-- Design Elements -->
  <rect x="60" y="140" width="20" height="20" fill="#3B82F6" opacity="0.2" rx="4"/>
  <rect x="60" y="170" width="20" height="20" fill="#3B82F6" opacity="0.2" rx="4"/>
  <path d="M65 150L75 150M70 145L70 155" stroke="#3B82F6" stroke-width="2"/>
  <path d="M65 180L75 180" stroke="#3B82F6" stroke-width="2"/>
</svg> 