<?xml version="1.0" encoding="UTF-8"?>
<svg width="400" height="300" viewBox="0 0 400 300" fill="none" xmlns="http://www.w3.org/2000/svg">
  <!-- Background -->
  <rect width="400" height="300" fill="#F8FAFC" rx="20"/>
  
  <!-- Search Bar -->
  <rect x="80" y="60" width="240" height="40" fill="white" stroke="#E2E8F0" stroke-width="2" rx="20"/>
  <circle cx="100" cy="80" r="10" stroke="#3B82F6" stroke-width="2"/>
  <path d="M108 88L115 95" stroke="#3B82F6" stroke-width="2"/>
  
  <!-- Search Results -->
  <rect x="80" y="120" width="240" height="30" fill="#E2E8F0" rx="4"/>
  <rect x="90" y="130" width="100" height="10" fill="#94A3B8" rx="2"/>
  
  <rect x="80" y="160" width="240" height="30" fill="#E2E8F0" rx="4"/>
  <rect x="90" y="170" width="120" height="10" fill="#94A3B8" rx="2"/>
  
  <rect x="80" y="200" width="240" height="30" fill="#E2E8F0" rx="4"/>
  <rect x="90" y="210" width="80" height="10" fill="#94A3B8" rx="2"/>
  
  <!-- Ranking Elements -->
  <circle cx="340" cy="135" r="15" fill="#10B981" opacity="0.2"/>
  <text x="332" y="140" fill="#10B981" font-family="Arial" font-size="12">#1</text>
  
  <circle cx="340" cy="175" r="15" fill="#F59E0B" opacity="0.2"/>
  <text x="332" y="180" fill="#F59E0B" font-family="Arial" font-size="12">#2</text>
  
  <circle cx="340" cy="215" r="15" fill="#EF4444" opacity="0.2"/>
  <text x="332" y="220" fill="#EF4444" font-family="Arial" font-size="12">#3</text>
  
  <!-- Analytics Graph -->
  <path d="M60 260L60 180" stroke="#CBD5E1" stroke-width="2"/>
  <path d="M60 260L160 260" stroke="#CBD5E1" stroke-width="2"/>
  <path d="M80 240L100 220L120 230L140 200" stroke="#3B82F6" stroke-width="2"/>
  
  <!-- Keywords -->
  <circle cx="200" cy="240" r="20" fill="#3B82F6" opacity="0.2"/>
  <text x="190" y="245" fill="#3B82F6" font-family="Arial" font-size="12">SEO</text>
  
  <circle cx="250" cy="240" r="20" fill="#3B82F6" opacity="0.2"/>
  <text x="235" y="245" fill="#3B82F6" font-family="Arial" font-size="12">RANK</text>
</svg> 