<?xml version="1.0" encoding="UTF-8"?>
<svg width="400" height="300" viewBox="0 0 400 300" fill="none" xmlns="http://www.w3.org/2000/svg">
  <!-- Background -->
  <rect width="400" height="300" fill="#F8FAFC" rx="20"/>
  
  <!-- Social Media Feed -->
  <rect x="100" y="60" width="200" height="180" fill="white" stroke="#E2E8F0" stroke-width="2" rx="12"/>
  
  <!-- Post Elements -->
  <rect x="120" y="80" width="160" height="40" fill="#E2E8F0" rx="8"/>
  <circle cx="140" cy="100" r="10" fill="#3B82F6"/>
  <rect x="160" y="95" width="100" height="10" fill="#94A3B8" rx="2"/>
  
  <rect x="120" y="130" width="160" height="40" fill="#E2E8F0" rx="8"/>
  <circle cx="140" cy="150" r="10" fill="#F59E0B"/>
  <rect x="160" y="145" width="100" height="10" fill="#94A3B8" rx="2"/>
  
  <rect x="120" y="180" width="160" height="40" fill="#E2E8F0" rx="8"/>
  <circle cx="140" cy="200" r="10" fill="#EF4444"/>
  <rect x="160" y="195" width="100" height="10" fill="#94A3B8" rx="2"/>
  
  <!-- Connection Lines -->
  <path d="M60 150C60 100 100 80 100 80" stroke="#3B82F6" stroke-width="2"/>
  <path d="M340 150C340 200 300 220 300 220" stroke="#3B82F6" stroke-width="2"/>
  
  <!-- Social Icons -->
  <circle cx="60" cy="150" r="15" fill="#3B82F6" opacity="0.2"/>
  <path d="M55 150H65M60 145V155" stroke="#3B82F6" stroke-width="2"/>
  
  <circle cx="340" cy="150" r="15" fill="#3B82F6" opacity="0.2"/>
  <path d="M335 150H345" stroke="#3B82F6" stroke-width="2"/>
  
  <!-- Decorative Elements -->
  <circle cx="60" cy="80" r="4" fill="#10B981"/>
  <circle cx="340" cy="80" r="4" fill="#10B981"/>
  <circle cx="60" cy="220" r="4" fill="#10B981"/>
  <circle cx="340" cy="220" r="4" fill="#10B981"/>
  
  <!-- Like/Share Icons -->
  <path d="M120 240L140 230L160 240" stroke="#EF4444" stroke-width="2"/>
  <path d="M180 240C180 235 185 230 190 235" stroke="#3B82F6" stroke-width="2"/>
</svg> 