<?xml version="1.0" encoding="UTF-8"?>
<svg width="400" height="300" viewBox="0 0 400 300" fill="none" xmlns="http://www.w3.org/2000/svg">
  <!-- Background Elements -->
  <rect width="400" height="300" fill="#F8FAFC" rx="20"/>
  <path d="M0 20C0 8.95431 8.95431 0 20 0H380C391.046 0 400 8.95431 400 20V50H0V20Z" fill="#E2E8F0"/>
  
  <!-- Browser Controls -->
  <circle cx="25" cy="25" r="6" fill="#EF4444"/>
  <circle cx="45" cy="25" r="6" fill="#F59E0B"/>
  <circle cx="65" cy="25" r="6" fill="#10B981"/>
  
  <!-- Content Elements -->
  <rect x="40" y="80" width="320" height="40" rx="8" fill="#E2E8F0"/>
  <rect x="40" y="140" width="150" height="120" rx="8" fill="#CBD5E1"/>
  <rect x="210" y="140" width="150" height="120" rx="8" fill="#CBD5E1"/>
  
  <!-- Design Elements -->
  <path d="M40 240H360" stroke="#94A3B8" stroke-width="2" stroke-dasharray="4 4"/>
  <circle cx="200" cy="270" r="8" fill="#3B82F6"/>
  
  <!-- Code Elements -->
  <path d="M60 100L80 120L60 140" stroke="#1E40AF" stroke-width="2"/>
  <path d="M100 100L80 120L100 140" stroke="#1E40AF" stroke-width="2"/>
  
  <!-- Responsive Elements -->
  <rect x="320" y="10" width="60" height="30" rx="4" fill="#3B82F6" opacity="0.2"/>
  <path d="M335 25H365" stroke="#3B82F6" stroke-width="2"/>
</svg> 