<?xml version="1.0" encoding="UTF-8"?>
<svg width="800px" height="600px" viewBox="0 0 800 600" version="1.1" xmlns="http://www.w3.org/2000/svg">
    <g id="website-maintenance" stroke="none" stroke-width="1" fill="none" fill-rule="evenodd">
        <!-- Browser window -->
        <rect x="200" y="150" width="400" height="300" rx="10" fill="#2D3748"/>
        <rect x="220" y="170" width="360" height="260" rx="5" fill="#4A5568"/>
        <!-- Browser controls -->
        <circle cx="240" cy="160" r="5" fill="#FC8181"/>
        <circle cx="260" cy="160" r="5" fill="#F6E05E"/>
        <circle cx="280" cy="160" r="5" fill="#68D391"/>
        <!-- Maintenance elements -->
        <path d="M300,250 C300,200 500,200 500,250" stroke="#4299E1" stroke-width="4" stroke-linecap="round"/>
        <path d="M300,300 C300,250 500,250 500,300" stroke="#4299E1" stroke-width="4" stroke-linecap="round"/>
        <!-- Gears -->
        <circle cx="400" cy="350" r="40" fill="#2B6CB0"/>
        <circle cx="400" cy="350" r="20" fill="#4A5568"/>
        <path d="M400,310 L400,390 M360,350 L440,350 M370,320 L430,380 M370,380 L430,320" 
              stroke="#A0AEC0" stroke-width="4" stroke-linecap="round"/>
        <!-- Tools -->
        <path d="M500,350 L550,400" stroke="#48BB78" stroke-width="4" stroke-linecap="round"/>
        <circle cx="560" cy="410" r="15" fill="#48BB78"/>
    </g>
</svg> 